/* XPM */
static const char *bar[]=
{
"17 17 2 1",
". c None",
"# c #303030",
".......##........",
".......##........",
".......##........",
".......#####.....",
".......#####.....",
".......##........",
".......##........",
".......##........",
".......##........",
".......##........",
".......##........",
".......##........",
"....#####........",
"....#####........",
".......##........",
".......##........",
".......##........"};
