/* XPM */
static const char *datawindow[]={
"16 16 52 1",
". c None",
"# c #000000",
"p c #00836a",
"a c #009e80",
"X c #255546",
"d c #6b5f4b",
"l c #6c604b",
"g c #716650",
"b c #73695a",
"k c #776c56",
"n c #7d725c",
"M c #817664",
"o c #827862",
"W c #867c60",
"s c #887f68",
"U c #8a7e63",
"P c #8d8166",
"w c #8e856e",
"J c #908469",
"E c #93876d",
"A c #948b74",
"F c #99917a",
"L c #aea28a",
"Q c #b2a27e",
"R c #b2a790",
"K c #c2b69a",
"T c #ceba92",
"S c #d2c6ae",
"h c #dabe96",
"m c #dac296",
"N c #deceae",
"V c #ded6c6",
"G c #e6d6b6",
"O c #e9d6b1",
"I c #eddcbf",
"H c #eedfc4",
"D c #f0e3cc",
"c c #f0e8d9",
"i c #f2dec2",
"C c #f2e6d1",
"B c #f3e9d6",
"z c #f4ead9",
"y c #f5edde",
"x c #f7f0e3",
"v c #f7f1e6",
"u c #f9f4eb",
"j c #faf2e6",
"t c #faf7f0",
"r c #fbf8f3",
"q c #fcfbf8",
"e c #fefefe",
"f c #ffffff",
".#.........##...",
"#ab#.....##cd...",
"#abe#..##cffg...",
"#abee##hijffk...",
"#abeeelmijffn###",
"#abeeekmijffocp#",
"#abeqromijffscp#",
"#abtuvsmijffwcp#",
"#abxyzwmijffAcp#",
"#abBCDEmijffFcp#",
"#abGHIJmijKoLcp#",
".#aMNOPmKoQRScp#",
"..#aMTUQoSVVccp#",
"...#aMWoaaaaaap#",
"....#aXa########",
".....###........"};
