/* XPM */
static const char *deletefile[] = {
/* columns rows colors chars-per-pixel */
"16 16 46 1",
"  c black",
". c gray19",
"X c gray26",
"o c #585858",
"O c #676767",
"+ c gray42",
"@ c gray44",
"# c #966767",
"$ c #9b6a6a",
"% c #c41111",
"& c #e40500",
"* c #ef1000",
"= c #f60b00",
"- c #ff0401",
"; c #ff0e02",
": c #ff1200",
"> c #ff2602",
", c #ff2008",
"< c #ff2f0c",
"1 c #ff3311",
"2 c #ff351a",
"3 c #ff4223",
"4 c #ff4b2b",
"5 c #ff5a3f",
"6 c #de6457",
"7 c #ff644d",
"8 c #ff867c",
"9 c #898989",
"0 c gray60",
"q c DarkGray",
"w c gray71",
"e c #bbbbbb",
"r c #ffc8bf",
"t c #c5c5c5",
"y c #cccccc",
"u c #d5d5d5",
"i c #dadada",
"p c #ffcbc3",
"a c #fdd2ca",
"s c #ffd9d2",
"d c #e2e2e2",
"f c #eaeaea",
"g c #ffe4e0",
"h c #f3f3f3",
"j c #fefefe",
"k c None",
/* pixels */
"kkqqqqqqqq9kkkkk",
"kkqhhhffyq0okkkk",
"kkqhjjjjfqj0okkk",
"kkqhjjjjhqjj0.kk",
"kkqhjjjjjq@+X.kk",
"kkqhjjjjjhdw9.kk",
"kkqhjjarrghdw.kk",
"kkqhj8&214aji.kk",
"kkqhs-j1j<;fi.kk",
"kkqha-*j14=yu.kk",
"kkqhp:j3j5=tu.kk",
"kkqhf7>37:#yu.kk",
"kkqhhy6%%#wfi.kk",
"kkqhjhiewtfji.kk",
"kkqhfduuuuiii.kk",
"kkO...........kk"
};
