/* XPM */
static const char *deletefile[]={
"22 22 121 2",
"Qt c None",
".j c #000000",
"#n c #020202",
".9 c #060606",
".i c #080808",
".5 c #0c0c0c",
".h c #101010",
".Z c #131313",
".u c #141414",
".g c #181818",
".N c #191919",
".f c #212121",
".H c #262626",
".e c #292929",
".B c #2c2c2c",
".d c #313131",
".A c #333333",
".x c #393939",
".c c #3a3a3a",
".y c #3e3e3e",
".w c #3f3f3f",
".b c #424242",
".q c #464646",
".a c #4a4a4a",
".k c #4c4c4c",
".# c #535353",
".V c #820202",
".G c #857f7a",
".p c #989898",
".M c #a09b97",
".o c #b4b4b4",
".F c #b8b1a9",
".U c #bbb2ab",
".Y c #c6b8ac",
".n c #c6c6c6",
"#2 c #c7a081",
"#P c #c8a487",
"#1 c #c8a488",
"#C c #c9a88d",
"#0 c #c9a88e",
".v c #c9c9c9",
"#s c #cbac93",
"#Z c #cbad94",
"#m c #ccb099",
"#Y c #cdb09a",
"#j c #ceb49f",
"#X c #ceb5a0",
"#A c #ceb69d",
"#b c #cfb8a5",
"#W c #cfb8a6",
".E c #cfcbc4",
".L c #d0c8c1",
"#V c #d1bdac",
".8 c #d2c0b1",
"#U c #d2c0b2",
"#T c #d4c4b8",
"#q c #d6c0af",
"#S c #d6c8be",
".m c #d6d6d6",
"#R c #d7ccc4",
"#Q c #d8d0ca",
"#v c #d9cbc0",
".3 c #d9cec7",
".l c #dedede",
".z c #e0e0e0",
".t c #e1e1e1",
".K c #e4e0db",
"#O c #e7c2a2",
"#N c #e8c5a6",
"#B c #e9c5a6",
"#M c #eac9ac",
"#r c #eac9ad",
".T c #eadfd5",
"#L c #eccdb3",
"#l c #ecceb5",
".s c #ececec",
"#K c #eed2ba",
"#i c #eed3bc",
"#J c #efd6c0",
"#z c #efd7c1",
"#h c #efd8c3",
"#a c #f0d8c3",
".D c #f0eeec",
"#y c #f1dac7",
"#I c #f1dbc7",
"#g c #f1dcc9",
".7 c #f2ddcb",
"#H c #f2dece",
"#p c #f2dfce",
"#x c #f2e0cf",
"## c #f3e1d1",
".4 c #f3e1d2",
".6 c #f4e1d2",
"#G c #f4e3d4",
"#w c #f4e3d5",
"#o c #f4e4d6",
"#d c #f5e5d8",
".X c #f5e6d9",
"#F c #f6e8db",
"#E c #f7ebe1",
"#D c #f9f0e8",
".S c #faaea3",
".0 c #fad2ce",
".R c #faf4ee",
"#t c #fbf5f0",
".2 c #fbf7f3",
".Q c #fcf8f5",
".J c #fdfaf7",
"#f c #fdfaf8",
"#c c #fdfbf9",
".1 c #fdfcfa",
".C c #fdfdfd",
".W c #fe0202",
"#u c #fe7e7a",
".O c #febebe",
".P c #fefcfb",
".I c #fefdfc",
"#e c #fefefd",
"#. c #fefefe",
"#k c #fffefe",
".r c #ffffff",
"QtQtQt.#.a.b.c.d.e.f.g.h.i.j.jQtQtQtQtQtQtQt",
"QtQtQt.k.l.l.l.l.l.l.m.n.o.j.p.jQtQtQtQtQtQt",
"QtQtQt.q.l.r.r.r.r.r.r.s.t.u.v.p.jQtQtQtQtQt",
"QtQtQt.w.l.r.r.r.r.r.r.r.s.e.r.v.p.jQtQtQtQt",
"QtQtQt.x.l.r.r.r.r.r.r.r.r.y.z.r.v.p.jQtQtQt",
"QtQtQt.A.l.r.r.r.r.r.r.r.r.#.y.e.u.j.jQtQtQt",
"QtQtQt.B.l.r.r.r.r.r.r.r.r.C.D.E.F.G.jQtQtQt",
"QtQtQt.H.l.r.r.r.r.r.r.r.r.I.J.K.L.M.jQtQtQt",
"QtQtQt.N.l.r.O.r.r.r.r.P.Q.R.S.O.T.U.jQtQtQt",
"QtQtQt.N.l.r.V.W.r.r.r.P.Q.S.W.V.X.Y.jQtQtQt",
"QtQtQt.Z.l.r.z.V.W.0.1.2.S.W.V.3.4.Y.jQtQtQt",
"QtQtQt.5.l.r.r.z.V.W.0.0.W.V.3.6.7.8.jQtQtQt",
"QtQtQt.9.l.r.r#..z.V.W.W.V.3##.7#a#b.jQtQtQt",
"QtQtQt.9.l.r.r#.#c.0.W.W.S#d##.7#a#b.jQtQtQt",
"QtQtQt.j.l.r#e#f.0.W.V.V.W.S#g#h#i#j.jQtQtQt",
"QtQtQt.j.l#k.J.0.W.V.3.3.V.W.S#i#l#m.jQtQtQt",
"QtQtQt#n.l.J.0.W.V.3#o#p#q.V.W.S#r#s.jQtQtQt",
"QtQtQt.j.l#t#u.V#v#w#x#y#z#A.V#u#B#C.jQtQtQt",
"QtQtQt.j.l#D#E#F#G#H#I#J#K#L#M#N#O#P.jQtQtQt",
"QtQtQt.j#Q#Q#R#S#T#U#V#W#X#Y#Z#0#1#2.jQtQtQt",
"QtQtQt.j.j.j.j.j.j.j.j.j.j.j.j.j.j.j.jQtQtQt",
"QtQtQtQtQtQtQtQtQtQtQtQtQtQtQtQtQtQtQtQtQtQt"};
