/* XPM */
static const char *edit[] = {
/* columns rows colors chars-per-pixel */
"16 16 63 1",
"  c #000000",
". c #1c3640",
"X c #22404b",
"o c gray27",
"O c #4c4c4c",
"+ c #405259",
"@ c #585858",
"# c #496c71",
"$ c #6a5543",
"% c #6a6766",
"& c #6b6b6b",
"* c #707067",
"= c #747474",
"- c #7b7b7b",
"; c #3e6d83",
": c #3f7085",
"> c #5e92ac",
", c #7496a9",
"< c #8a5931",
"1 c #9f6544",
"2 c #976e58",
"3 c #847a74",
"4 c #bf7850",
"5 c #ca773e",
"6 c #978279",
"7 c #e19871",
"8 c #858584",
"9 c #8b8a8a",
"0 c #959595",
"q c #999999",
"w c #98b3bf",
"e c #a5a5a5",
"r c gray68",
"t c #abb4a0",
"y c #b5b5b5",
"u c #bbbbbb",
"i c #a7bdc8",
"p c #abbcc3",
"a c #abc0cb",
"s c #acc8d6",
"d c #b5c4ce",
"f c #b0cbd9",
"g c #becdd7",
"h c #bed0d8",
"j c #f8bb98",
"k c #f8cca3",
"l c #f8cdb2",
"z c #c3c3c3",
"x c #cbcbcb",
"c c #cdcfd0",
"v c #c2d1d9",
"b c #d3d2d2",
"n c #dbdbdb",
"m c #efd6ca",
"M c #e5dcd8",
"N c #fce3ce",
"B c #e2e2e2",
"V c #ededed",
"C c #eceff1",
"Z c #f5ede8",
"A c #f3f2f2",
"S c #fbfbfb",
"D c None",
/* pixels */
"DDqqqqq0qq&DDDDD",
"iwqAAVAAAyy&DDDD",
"diqASSSSSySu&DDD",
",gpVSbcSSySSy@DD",
";>fvCSSASq&&&@DD",
"X;>fhcbcSABy9@DD",
" .;>tkASSVBby@DD",
"  +#5jNZVVBnz@DD",
"  @*<4lmV8-nu@DD",
"  =08$17MB=nu@DD",
"D 9yq0326bnny@DD",
"DD0nxrq9%ebbr@DD",
"DDqAV=zerxOxr@DD",
"DDqAA-=bbOoxe@DD",
"DDqBnxzuuyree@DD",
"DD&@@@@@@@@@@@DD"
};
