/* XPM */
static const char *exitpix[]={
"15 15 100 2",
"Qt c None",
".U c #1a1414",
".1 c #1e1414",
".I c #291414",
"#E c #2f1414",
".x c #341414",
".n c #3b1414",
"#w c #411414",
".f c #541a16",
".e c #5c1d18",
".d c #5c1f1a",
".c c #612621",
".8 c #642722",
".T c #671414",
".a c #672f2a",
"#v c #6a1414",
".# c #6a3936",
"#H c #6b1414",
".b c #703b36",
"#D c #761414",
".0 c #7a1414",
".7 c #7d1414",
".H c #8e1414",
".w c #901414",
"#G c #911414",
"#u c #961414",
".m c #a15c54",
".Z c #a61414",
".G c #a71414",
"#o c #ae7269",
"#C c #b41414",
".6 c #b51414",
"#F c #b51616",
"#B c #b71414",
"#i c #b81515",
"#A c #ba1414",
".v c #bb4744",
"#n c #bc1414",
"#z c #be2727",
".Y c #c0231c",
"#x c #c0231f",
".S c #c12c24",
"#t c #c13228",
"#p c #c15350",
"#y c #c2271f",
".5 c #c23333",
"#s c #c55047",
"#d c #c55252",
"#k c #c56058",
".u c #c56460",
"#c c #c65451",
"#m c #c75950",
"#r c #c85148",
".R c #ca544e",
"#q c #ca5953",
"#f c #ca655d",
".t c #ca7169",
"#b c #cb635c",
".4 c #cb655e",
"#. c #cb6661",
"#h c #ce6f67",
".F c #d16e66",
".s c #d27e78",
".O c #d46b66",
".Q c #d46c67",
"#l c #d47d77",
".E c #d4817c",
".W c #d77570",
".l c #d7a29c",
".y c #d97570",
".r c #d98680",
"#j c #d9a8a2",
".K c #da7d7a",
".3 c #da7f7b",
".q c #da807c",
".M c #db746f",
".p c #db7975",
".P c #dc7875",
"#g c #dc7a78",
"## c #dc7b77",
".C c #dc7d78",
".A c #dd7772",
"#a c #dd7978",
".X c #de7a78",
".D c #de7e7a",
".L c #df7e7d",
".z c #df7f7b",
".B c #df8580",
".k c #e6b9b5",
"#e c #e7b8b4",
".j c #eabeb9",
".9 c #eabfbb",
".2 c #f1c8c6",
".i c #f3d7d5",
".V c #f3d8d7",
".h c #f3dada",
".g c #f6e7e7",
".J c #f6eceb",
".N c #fef3f3",
".o c #ffffff",
"QtQtQtQt.#.a.b.c.d.e.fQtQtQtQt",
"QtQtQt.#.g.h.i.j.k.l.m.nQtQtQt",
"QtQt.#.o.p.q.r.s.t.u.v.w.xQtQt",
"Qt.#.o.y.z.A.B.C.D.E.F.G.H.IQt",
".#.J.K.L.M.N.O.P.Q.N.R.S.G.T.U",
".#.V.W.X.N.N.N.Q.N.N.N.Y.Z.0.1",
".#.2.Q.3.Q.N.N.N.N.N.4.5.6.7.1",
".8.9#.###a.Q.N.N.N#b#c#d.6.7.1",
".d#e#f#g.Q.N.N.N.N.N#h#i.Z.7.1",
".e#j#k#l.N.N.N#m.N.N.N#n.Z.0.1",
".f#o#p#q#r.N#m#s#t.N.6.Z#u#v.U",
"Qt#w.w.G#x#y#z#A#B#C.Z#u#D#EQt",
"QtQt.x.H.G.6#F.6.Z.Z#G#D#EQtQt",
"QtQtQt.x#H.0.7.7.7.0#v#EQtQtQt",
"QtQtQtQt.U.1.1.1.1.1.UQtQtQtQt"};
