/* XPM */
static const char *indicator[]={
"22 22 12 1",
"a c None",
"h c #000000",
"i c #595959",
"j c #710572",
"e c #780679",
"b c #7f7f7f",
"c c #b2b2b2",
". c #dcdcdc",
"f c #e1cee3",
"g c #ededed",
"d c #f2f2f2",
"# c #ffffff",
"......................",
".###################.a",
".###################.a",
".##bbbbbbbbbbbbbbb##.a",
".##bcccccccccccccc##.a",
".##bcddddddddddddc##.a",
".##bcd####eeeeee#c##.a",
".##bcd###fe######c##.a",
".##bcd###ef######c##.a",
".##bcde#fe#gh#hi#c##.a",
".##bcje#ef#h#h#h#c##.a",
".##bcdefe####h###c##.a",
".##bcd#ef#h#hh#h#c##.a",
".##bcd#e##ih#ihg#c##.a",
".##bcd###########c##..",
".##bcccccccccccccc##..",
".###################..",
".###################..",
".............aaaaa....",
"aaaaaaaaaaaaaaaaaaaaa.",
"aaaaaaaaaaaaaaaaaaaaaa",
"aaaaaaaaaaaaaaaaaaaaaa"};
