/* XPM */
static const char *indicator[] = {
"19 17 11 1",
" 	c None",
".	c #FFFFFF",
"+	c #7F7F7F",
"@	c #B2B2B2",
"#	c #F2F2F2",
"$	c #780679",
"%	c #E1CEE3",
"&	c #EDEDED",
"*	c #000000",
"=	c #595959",
"-	c #710572",
"...................",
"...................",
"..+++++++++++++++..",
"..+@@@@@@@@@@@@@@..",
"..+@############@..",
"..+@#....$$$$$$.@..",
"..+@#...%$......@..",
"..+@#...$%......@..",
"..+@#$.%$.&*.*=.@..",
"..+@-$.$%.*.*.*.@..",
"..+@#$%$....*...@..",
"..+@#.$%.*.**.*.@..",
"..+@#.$..=*.=*&.@..",
"..+@#...........@..",
"..+@@@@@@@@@@@@@@..",
"...................",
"..................."};
