/* XPM */
static const char *newindicator[]={
"32 32 321 2",
"Qt c None",
"bd c #34f523",
"a2 c #40ec30",
"cE c #47a73f",
"ai c #47ef31",
"bS c #4beb3c",
"aA c #4bf33b",
"b4 c #4e7b4a",
"#3 c #53f345",
"b2 c #55cf4a",
"bk c #56e14b",
"aR c #56f048",
"co c #58b74d",
"be c #5ae94d",
"b3 c #5baf54",
"bw c #5ce850",
"cc c #62e357",
"aX c #62e657",
"aG c #62e757",
"ar c #64e458",
"bx c #65e55b",
"cg c #66da5b",
"#n c #6cf35f",
"bU c #6ddd64",
"b6 c #6e986a",
"bp c #6eed64",
"#4 c #6eee62",
"bT c #72de68",
"cI c #72e168",
".# c #737373",
"bW c #73d66a",
"cM c #747474",
"bN c #75e566",
"cn c #769973",
"cs c #77bb39",
"bE c #77cc70",
"aU c #78b52e",
"aL c #79b83f",
"#R c #79e66f",
"bM c #79e870",
"#w c #79f06e",
"cT c #7a7a7a",
"bq c #7be871",
"c9 c #7c7c7c",
"cl c #7c8e7a",
"aj c #7cc03e",
"bA c #7dd575",
"bz c #7dd876",
"b0 c #7ec777",
"bI c #7f937d",
"#Y c #806565",
"aP c #818181",
"bc c #819513",
"aV c #81c04d",
"by c #81d979",
"ck c #82a17f",
"bV c #82d47b",
"cY c #838383",
"cO c #839781",
"b1 c #84c17d",
"#9 c #84de7c",
"bv c #84df7c",
".e c #858585",
"cF c #86b747",
"#2 c #86ee7d",
".b c #878787",
"aT c #888c10",
"aJ c #88b44f",
"d. c #898989",
"bD c #8ac885",
"bf c #8adb82",
"a. c #8adb83",
"b8 c #8bbe54",
"#. c #8c8c8c",
"bK c #8c938c",
"bl c #8cc687",
".0 c #8d8d8d",
"ce c #8dd087",
"bn c #8e8e8e",
".u c #8f8f8f",
"a# c #8fd081",
"#L c #8fea87",
"bh c #90af58",
"ah c #90ea88",
".d c #929292",
".c c #939393",
"cB c #949494",
"cp c #94b253",
".J c #959595",
".t c #979797",
"bJ c #97a496",
"ba c #97db88",
"ay c #989393",
"cS c #989898",
"aS c #99821a",
"aI c #99a857",
"aq c #99d692",
".j c #9a9a9a",
"cy c #9ac296",
"bO c #9b9134",
"#l c #9b9b9b",
"cj c #9bb599",
"#8 c #9bc579",
"aY c #9bca88",
"cA c #9d9d9d",
".i c #9e9e9e",
"cd c #9ecd9a",
".p c #9f9f9f",
"bg c #9fce9b",
".o c #a0a0a0",
"cm c #a0a3a0",
"aW c #a0d79b",
"cN c #a1a1a1",
"b5 c #a1a7a0",
"az c #a1e59c",
"c7 c #a2a2a2",
".n c #a3a3a3",
"#S c #a3d89e",
".m c #a4a4a4",
"bs c #a4be78",
"ap c #a59649",
"#u c #a5a5a5",
"bH c #a5a9a4",
"cf c #a5c5a2",
"ae c #a63c3c",
".l c #a6a6a6",
"c3 c #a79e9e",
".k c #a7a7a7",
"c. c #a87b28",
"c8 c #a8a8a8",
"cZ c #a99999",
"cL c #a9a9a9",
"br c #a9dea5",
"aB c #aa650e",
"## c #aaaaaa",
"bG c #aaabaa",
"bF c #aab1a9",
"b# c #aae0a6",
"cC c #ababab",
"a3 c #abbca9",
"b7 c #abdca4",
"a6 c #acacac",
".f c #adadad",
"#D c #addca8",
"as c #ae8b4f",
".h c #aeaeae",
".g c #afafaf",
"c4 c #b08d8d",
"a5 c #b0b0b0",
"cz c #b0b4b0",
"aQ c #b0e1ac",
"bm c #b1b1b1",
"bZ c #b1b2b1",
"aO c #b2a8a8",
"ci c #b2b2b2",
"aN c #b3b3b3",
"a9 c #b3e2af",
"bj c #b4b1a1",
"aD c #b4b27f",
"a4 c #b4b4b4",
"bY c #b5b5b5",
"ch c #b5b7b5",
"bX c #b5b9b5",
"#I c #b67575",
"#k c #b6b6b6",
"b9 c #b79964",
"cx c #b8b9b8",
"#Z c #b9b9b9",
"aM c #bababa",
"#x c #bae6b5",
"cw c #bbbbbb",
"c# c #bc5d1f",
"c0 c #bc6868",
"a1 c #bc7a50",
"cK c #bcbcbc",
"aF c #bcd1b9",
"cP c #bdbda1",
"a7 c #bebebe",
"b. c #bedebb",
".a c #bfbfbf",
"cD c #bfc0bf",
"aC c #c08859",
"cU c #c0bdbd",
"bC c #c19b9a",
"ao c #c1b89f",
"cv c #c1c1c1",
"cJ c #c1c8c1",
"c6 c #c2c1c1",
"cX c #c2c2c2",
"#c c #c2ecbe",
"aw c #c39393",
"#W c #c3b3b3",
"#K c #c3e7bf",
"#H c #c4bcbc",
".q c #c4c4c4",
"bR c #c4c9c3",
"aE c #c5774e",
"c2 c #c5c0c0",
"#t c #c5c5c5",
"#E c #c5d3c4",
"ak c #c5d8c1",
"aH c #c68668",
"cb c #c6c6c5",
"cu c #c6c6c6",
"bL c #c6dbc4",
"c5 c #c7b6b6",
"cW c #c7c5c5",
"ax c #c85e5e",
"av c #c89292",
"#j c #c8c8c8",
"#F c #c9c6c6",
"#T c #c9c7c6",
"ct c #ca9989",
"cR c #cac0c0",
"aK c #cb684c",
"bb c #cb8b6d",
"cH c #cbc3c1",
".9 c #cbcbcb",
"aZ c #cc5832",
"cr c #cc7b5e",
".z c #cccccc",
"au c #cd8989",
".y c #cdcdcd",
"bQ c #cebbbb",
".Z c #cecece",
"bB c #cf8181",
"#G c #cf9f9f",
".x c #cfcfcf",
"an c #cfd1cf",
".w c #d0d0d0",
".Y c #d1d1d1",
"bu c #d25a3b",
"#U c #d39898",
".v c #d3d3d3",
"bo c #d3dcd2",
"at c #d47d7b",
".I c #d4d4d4",
"#i c #d6d6d6",
"#o c #d6e6d5",
"#X c #d75858",
"bP c #d7a0a0",
".H c #d7d7d7",
"c1 c #d88282",
"ca c #d88e8c",
"cQ c #d89090",
"#C c #d8cbcb",
".s c #d8d8d8",
".8 c #d9d9d9",
"a8 c #d9ddd8",
"#6 c #dab7b7",
".G c #dadada",
"#7 c #db9c9c",
"al c #dba9a4",
".r c #dbdbdb",
"cV c #dc8080",
"cG c #dc8684",
"#P c #dcb4b4",
".X c #dcdcdc",
"#V c #dd6868",
"am c #dd9d9b",
"#O c #ddbaba",
"#M c #dddada",
".F c #dddddd",
"#1 c #dde3dc",
"#v c #dde6dd",
"#Q c #de9999",
".7 c #dedede",
"ad c #df4f4f",
".E c #dfdfdf",
"ag c #dfe0df",
"#y c #e0d8d8",
".K c #e0e0e0",
".6 c #e1dede",
".W c #e1e1e1",
"#p c #e2e0e0",
".D c #e2e2e2",
"a0 c #e33828",
"ab c #e34f4f",
"#A c #e39e9e",
"#h c #e3b6b6",
"af c #e3e3e3",
"#J c #e3e5e2",
"#d c #e3e7e3",
"ac c #e44a4a",
"#e c #e4e2e2",
".A c #e4e4e4",
"aa c #e55050",
"bt c #e56968",
"#0 c #e5e5e5",
"#s c #e69191",
"#f c #e6c0c0",
".4 c #e6dddd",
".V c #e6e2e2",
".C c #e6e6e6",
".U c #e7e7e7",
"#m c #e7e8e7",
"#B c #e87979",
".B c #e8e8e8",
".3 c #e9e9e9",
"bi c #ea3737",
"cq c #ea5252",
".T c #eaeaea",
"#5 c #eb6d6d",
".S c #ebebeb",
".5 c #ec9898",
"#b c #ececec",
"#r c #ed6b6b",
"#z c #ed6f6f",
".R c #ededed",
"#a c #eeeeee",
"#N c #ef5b5b",
".Q c #efefef",
".P c #f1f1f1",
"#q c #f25d5d",
".2 c #f2f2f2",
"#g c #f34848",
".O c #f3f3f3",
".N c #f4f4f4",
".1 c #f5f5f5",
".M c #f6f6f6",
".L c #f8f8f8",
"QtQtQtQtQtQtQtQtQtQtQtQtQtQtQtQtQtQtQtQtQtQtQtQtQtQtQtQtQtQtQt.#",
"QtQtQtQtQtQtQtQtQtQtQtQtQtQtQtQtQtQtQtQtQtQtQtQtQtQtQtQtQtQtQt.#",
"QtQtQtQtQtQtQtQtQtQtQtQtQtQtQtQtQtQtQtQtQtQtQtQtQtQtQtQtQtQtQt.#",
"QtQtQtQtQtQtQtQtQtQtQtQtQtQtQtQtQtQtQtQtQtQtQtQtQtQtQtQtQtQtQt.#",
"QtQtQtQtQtQtQtQtQtQtQtQtQtQtQtQtQtQtQtQtQtQtQtQtQtQtQtQtQtQtQt.#",
"QtQtQtQtQtQtQtQtQtQtQtQt.a.aQtQtQtQtQt.a.b.c.d.eQtQtQtQtQtQtQt.#",
"QtQtQtQtQt.f.g.g.h.h.f.f.i.j.k.l.m.n.o.p.q.r.s.tQtQtQtQtQtQtQt.#",
"QtQt.u.p.i.o.v.v.w.x.y.z.x.A.B.C.A.D.E.F.G.H.I.k.aQtQtQtQtQtQt.#",
"QtQt.J.K.L.M.N.O.P.Q.R.S.T.U.V.A.W.E.X.G.H.I.Y.Z.0QtQtQtQtQtQt.#",
"QtQt.g.v.1.N.2.P.Q.R.S.3.U.4.5.6.7.X.8.H.I.Y.Z.9#.QtQtQtQtQtQt.#",
"QtQt##Qt.O.2.Q#a#b.S#c#d#e#f#g#h.r.8#i.v.w.Z.9#j.m#kQtQtQtQtQt.#",
"QtQt#k#l.P.Q.R#b.3#m#n#o#p#q#r#s.s#i.I.Y.Z.9#j#t#u#uQtQtQtQtQt.#",
"QtQtQt.j#a#b.S.3.U#v#w#x#y#z#A#B#C#D#E.Z.9#F#G#H#I.uQtQtQtQtQt.#",
"QtQtQt.j#b.T.B.U#J#K#w#L#M#N#O#P#Q#R#S.9#T#U#V#W#X#YQtQtQtQtQt.#",
"QtQtQt.t#Z.B#0.A#1#2#3#4.8#5#6.v#7#8#9a.a#aaabacadaeQtQtQtQtQt.#",
"QtQtQtQt.m#0af.DagahaiajakalamanaoapaqarasatauavawaxayQtQtQtQt.#",
"QtQtQtQt.J.F.W.E.FazaAaBaCaDaEaFaGaHaIaJaKaLaM#kaNaOaPQtQtQtQt.#",
"QtQtQtQt.j#t.E.F.GaQaRaSaTaUaVaWaXaYaZa0a1a2a3a4a5a6.u.aQtQtQt.#",
"QtQtQtQt##a7a8a9b.b#babbbcbdbebfarbgbhbibjbkblbm.f##bn.pQtQtQt.#",
"QtQtQtQt.n.ibobpbqbrbsbtbubvbwbxbybzbAbBbCbDbEbFbGbHbIbJQtQtQt.#",
"QtQtQtQtQtbKbLbMbNbsbObPbQbRbSbTbUbVbWbXbYbZb0b1b2b3b4b5QtQtQt.#",
"QtQtQtQtQtb6b7b8b9c.c#ca#jcbcccdcecfcgchci.gcjckclcm#uQtQtQtQt.#",
"QtQtQtQtQtcncocpcqcrcsctcu.qcva7cwcxcyczcAcBbncCQtQtQtQtQtQtQt.#",
"QtQtQtQtQtcDcEcFcGcHcIcJ.qcva7cK#Z#kcL.ecMcNQtQtQtQtQtQtQtQtQt.#",
"QtQtQtQtQtQtcOcPcQcRcu.qcv.acKaM.n#lcSQtQtQtQtQtQtQtQtQtQtQtQt.#",
"QtQtQtQtQt.acTcUcVcW.qcX.acK.ccY###kQtQtQtQtQtQtQtQtQtQtQtQtQt.#",
"QtQtQtQtQtQtcZc0c1c2cvbY.o.ubnQtQtQtQtQtQtQtQtQtQtQtQtQtQtQtQt.#",
"QtQtQtQtQtQtc3c4c5c6cSc7.fQtQtQtQtQtQtQtQtQtQtQtQtQtQtQtQtQtQt.#",
"QtQtQtQtQtQtc8c9aPd.QtQtQtQtQtQtQtQtQtQtQtQtQtQtQtQtQtQtQtQtQt.#",
"QtQtQtQtQtQtQtc8c8QtQtQtQtQtQtQtQtQtQtQtQtQtQtQtQtQtQtQtQtQtQt.#",
"QtQtQtQtQtQtQtQtQtQtQtQtQtQtQtQtQtQtQtQtQtQtQtQtQtQtQtQtQtQtQt.#",
"QtQtQtQtQtQtQtQtQtQtQtQtQtQtQtQtQtQtQtQtQtQtQtQtQtQtQtQtQtQtQt.#"};
