/* XPM */
static const char *line[]=
{
"17 17 2 1",
". c None",
"# c #000000",
".................",
".#...............",
"..#..............",
"...#.............",
"....#............",
".....#...........",
"......#..........",
".......#.........",
"........#........",
".........#.......",
"..........#......",
"...........#.....",
"............#....",
".............#...",
"..............#..",
"...............#.",
"................."};
