/* XPM */
static const char *minuspixelspace[]={
"16 16 68 2",
"Qt c None",
".h c #000000",
"#. c #00c0c0",
".5 c #00ffff",
".o c #010101",
".d c #020202",
".9 c #070707",
".O c #090909",
".F c #0b0b0b",
".b c #0e0e0e",
".w c #101010",
".# c #272727",
".1 c #3eaab3",
".a c #3f3f3f",
".c c #3f3f40",
"#b c #404041",
".V c #43b2bc",
".U c #53c9d4",
".L c #60c1cd",
".0 c #68c6d1",
".u c #6dc4cc",
".Z c #6fc4ce",
"## c #707071",
".C c #71c6ce",
".Y c #76cbd5",
".K c #76d7e3",
".T c #78d8e3",
".D c #79cad4",
".3 c #7ac4cb",
".W c #7cc9cd",
".i c #7f8281",
".M c #85ccd2",
".4 c #89c8d0",
".S c #8adbe5",
".R c #8bd7e0",
".B c #8fdfe8",
".2 c #90d5db",
".t c #90d9df",
".J c #95e1ea",
".P c #a8d1d5",
".m c #a8dee5",
".8 c #add6da",
".Q c #addde2",
".n c #ade4e8",
".X c #aed6db",
".A c #afe9f0",
".I c #b0eaef",
".x c #b6d9dd",
".6 c #b9dade",
".E c #b9dbe0",
".v c #baecef",
".s c #beedf1",
".g c #c1d4d6",
"#a c #c3c3c3",
".H c #c3eaec",
".l c #c5e9ee",
".7 c #caeaed",
".N c #cdecf0",
".e c #ced8d9",
".z c #d0f1f5",
".y c #d5f2f4",
".G c #d7e5e6",
".f c #d7e5e8",
".k c #dcf2f3",
".r c #def5f7",
".j c #e3f3f4",
".p c #e3f4f3",
".q c #eafbfa",
"QtQtQtQt.#.a.bQtQtQtQtQtQtQtQtQt",
"QtQt.c.d.e.f.g.h.cQtQtQtQtQtQtQt",
"Qt.c.i.j.k.l.m.n.i.cQtQtQtQtQtQt",
"Qt.o.p.q.r.s.t.u.v.hQtQtQtQtQtQt",
".w.x.y.r.z.A.B.C.D.E.FQtQtQtQtQt",
".#.G.H.s.I.J.K.L.M.N.OQtQtQtQtQt",
".F.P.Q.R.S.T.U.V.W.X.hQtQtQtQtQt",
"Qt.h.s.Y.Z.0.V.1.s.hQtQtQtQtQtQt",
"Qt.c.i.s.2.3.4.s.i.h.5QtQtQtQtQt",
"QtQt.c.h.6.7.8.h.c.5.h.hQtQtQtQt",
"QtQtQtQt.o.9.oQt#..h###a.hQtQtQt",
"QtQtQtQtQtQtQtQtQt.h#b###a.hQtQt",
"QtQtQtQtQtQtQtQtQtQt.h#b###a.hQt",
".h.h.h.h.hQtQtQtQtQtQt.h#b###a.h",
"QtQtQtQtQtQtQtQtQtQtQtQt.h#b##.h",
"QtQtQtQtQtQtQtQtQtQtQtQtQt.h.hQt"};
