/* XPM */
static const char *newfile[]={
"16 16 81 2",
"Qt c None",
".j c #303030",
".m c #424242",
".# c #585858",
".l c #6b6b6b",
".f c #6d6d6d",
".h c #707070",
".k c #898989",
".p c #8f8984",
".c c #999999",
".b c #bcb7b1",
".t c #beb6af",
"#o c #c79f80",
"#f c #c8a487",
"#n c #c9a68a",
".9 c #caa98e",
"#m c #cbac93",
".0 c #cbad95",
"#l c #cdb19c",
".T c #cdb29c",
".L c #ceb6a3",
".i c #cecece",
"#k c #cfb7a5",
".E c #d0bbaa",
"#j c #d1beae",
".x c #d1bfb0",
"#i c #d3c3b7",
"#h c #d5c9c0",
"#g c #d7cfc9",
".a c #dedede",
".o c #e2e0de",
".s c #e7e0d9",
"#e c #e9c7aa",
".e c #eaeaea",
".8 c #ecceb4",
"#d c #eed4bd",
".Z c #eed4be",
".7 c #eed5be",
"#c c #f0d9c5",
".Y c #f0dbc7",
".6 c #f1dac7",
".S c #f1dbc7",
".K c #f2ddcb",
".5 c #f2e0cf",
"#b c #f2e0d0",
".R c #f3e1d1",
".D c #f4e3d5",
".J c #f4e4d5",
"#a c #f5e5d8",
".X c #f5e6d9",
".4 c #f5e7da",
".Q c #f6e7da",
".C c #f6e9de",
".w c #f6e9df",
".n c #f6f5f5",
".I c #f7e9de",
"## c #f7ebe1",
".3 c #f7ece2",
".P c #f8ece2",
".W c #f8ede3",
".H c #f9eee6",
".B c #f9efe7",
".v c #faf1ea",
"#. c #faf1eb",
".2 c #faf2ec",
".V c #faf3ec",
".O c #faf3ed",
".A c #faf5ef",
".G c #fbf6f1",
".r c #fbf6f2",
".u c #fbf7f3",
".N c #fcf8f5",
".1 c #fcf9f5",
".g c #fcfcfc",
".z c #fdfbf9",
".q c #fefcfb",
".U c #fefdfc",
".M c #fefdfd",
".F c #fefefe",
".y c #fffefe",
".d c #ffffff",
"QtQt.#.#.#.#.#.#.#.#.#QtQtQtQtQt",
"QtQt.#.a.a.a.a.a.b.#.c.#QtQtQtQt",
"QtQt.#.a.d.d.d.d.e.f.d.c.#QtQtQt",
"QtQt.#.a.d.d.d.d.g.h.i.d.c.jQtQt",
"QtQt.#.a.d.d.d.d.d.k.h.l.m.jQtQt",
"QtQt.#.a.d.d.d.d.d.n.o.b.p.jQtQt",
"QtQt.#.a.d.d.d.d.d.q.r.s.t.jQtQt",
"QtQt.#.a.d.d.d.d.q.u.v.w.x.jQtQt",
"QtQt.#.a.d.d.y.z.A.B.C.D.E.jQtQt",
"QtQt.#.a.d.F.z.G.H.I.J.K.L.jQtQt",
"QtQt.#.a.d.M.N.O.P.Q.R.S.T.jQtQt",
"QtQt.#.a.U.N.V.W.X.R.Y.Z.0.jQtQt",
"QtQt.#.a.1.2.3.4.5.6.7.8.9.jQtQt",
"QtQt.#.a#.###a#b#c#d.8#e#f.jQtQt",
"QtQt.##g#g#h#i#j#k#l#m#n#o.jQtQt",
"QtQt.#.j.j.j.j.j.j.j.j.j.j.jQtQt"};
