/* XPM */
static const char *newchart[]={
"24 24 162 2",
"Qt c None",
".j c #000000",
".i c #080808",
".h c #101010",
".u c #141414",
".g c #181818",
".f c #212121",
".D c #232300",
".e c #292929",
".d c #313131",
".A c #323232",
".x c #393939",
".c c #3a3a3a",
".y c #3e3e3e",
".w c #3f3f3f",
".b c #424242",
".q c #464646",
".3 c #494900",
".a c #4a4a4a",
".k c #4c4c4c",
".# c #535353",
".K c #857f7a",
".p c #989898",
"ag c #999999",
"#Y c #9e9c9a",
"#H c #9e9c9b",
".S c #a09b97",
"#a c #aaa538",
"#8 c #aba7a3",
"#I c #aba7a4",
"#c c #ababab",
"#D c #ada9a7",
"a. c #b0a69d",
"at c #b1aaa5",
".o c #b4b4b4",
".J c #b8b1a9",
".4 c #b8b8b8",
".2 c #bbb2ab",
"#d c #bcbcbc",
"ah c #bdb6b0",
"#9 c #bdb6b1",
"#J c #beb8b2",
".V c #c2c2c2",
"## c #c6b8ac",
".n c #c6c6c6",
"aF c #c7a081",
"ak c #c7baad",
"a# c #c7baae",
"as c #c8a487",
"aE c #c8a488",
"aw c #c8b9ad",
"af c #c9a88d",
"aD c #c9a88e",
".v c #c9c9c9",
"#7 c #cbac93",
"aC c #cbad94",
"ax c #cbb9ac",
"#X c #ccb099",
"#E c #ccc7c1",
"aB c #cdb09a",
"av c #cdc0b6",
"au c #cdc3bb",
"#R c #ceb49f",
"aA c #ceb5a0",
"#C c #cfb8a5",
"az c #cfb8a6",
"ay c #cfbbaa",
".I c #cfcbc4",
"#t c #d0bcab",
".R c #d0c8c1",
".E c #d1d1d1",
"#l c #d2c0b1",
".5 c #d2d2d2",
"aj c #d5c9bd",
"#Z c #d5c9be",
"al c #d6c4b6",
".m c #d6d6d6",
"ai c #d8cdc4",
"#S c #d8cfc7",
"#K c #d9d1c8",
"#w c #dbd5cf",
".T c #dbda4d",
".B c #dcdcdc",
"#m c #dddbda",
"#e c #dddcdc",
".l c #dedede",
".z c #e0e0e0",
".t c #e1e1e1",
".W c #e2e2e2",
"aa c #e4d3c3",
".Q c #e4e0db",
"ar c #e7c2a2",
"aq c #e8c5a6",
"ae c #e9c5a6",
"am c #e9d4c0",
"ap c #eac9ac",
"#6 c #eac9ad",
"#0 c #eadbcd",
".1 c #eadfd5",
"#F c #eadfd7",
"#T c #ebded3",
"ao c #eccdb3",
"#5 c #ecceb4",
"#W c #ecceb5",
".s c #ececec",
"ad c #eed2ba",
"#4 c #eed2bb",
"#Q c #eed3bc",
"an c #eed5bf",
"#L c #eee0d6",
"#3 c #efd6c1",
"ac c #efd7c1",
"#V c #efd8c2",
"#P c #efd8c3",
"ab c #efd8c5",
"#B c #f0d8c3",
"#x c #f0e5dc",
".H c #f0eeec",
"#2 c #f1dbc8",
"#O c #f1dcc9",
"#1 c #f1decd",
"#n c #f1ece8",
".N c #f1f1f1",
"#s c #f2ddcb",
"#U c #f2e2d4",
"#N c #f3e0d0",
"#A c #f3e1d1",
"#k c #f3e1d2",
"#f c #f3f2f0",
"#r c #f4e1d2",
"#M c #f4e4d6",
".M c #f4f4f4",
"#z c #f5e5d8",
"#q c #f5e6d8",
"#. c #f5e6d9",
"#G c #f5e8dc",
"#y c #f6e9dd",
"#j c #f6eadf",
".L c #f6f611",
"#p c #f7eadf",
".9 c #f7ebe1",
".F c #f7f7f7",
"#i c #f8eee6",
"#o c #f8f0ea",
".8 c #f9efe7",
".0 c #f9f0e8",
"#h c #faf3ed",
".7 c #faf4ee",
"#g c #faf6f2",
".Z c #fbf3ee",
".Y c #fcf8f5",
".6 c #fcfaf9",
".P c #fdfaf7",
".G c #fdfdfd",
".X c #fefdfb",
".O c #fefdfc",
".C c #fefefe",
".U c #ffff00",
"#u c #ffffc3",
"#b c #ffffda",
"#v c #ffffdd",
".r c #ffffff",
"QtQtQtQtQtQtQtQtQtQtQtQtQtQtQtQtQtQtQtQtQtQtQtQt",
"QtQtQtQtQtQt.#.a.b.c.d.e.f.g.h.i.j.jQtQtQtQtQtQt",
"QtQtQtQtQtQt.k.l.l.l.l.l.l.m.n.o.j.p.jQtQtQtQtQt",
"QtQtQtQtQtQt.q.l.r.r.r.r.r.r.s.t.u.v.p.jQtQtQtQt",
"QtQtQtQtQtQt.w.l.r.r.r.r.r.r.r.s.e.r.v.p.jQtQtQt",
"QtQtQtQtQtQt.x.l.r.r.r.r.r.r.r.r.y.z.r.v.p.jQtQt",
"QtQtQtQtQtQt.A.B.C.r.r.r.r.r.r.r.#.y.e.u.j.jQtQt",
"QtQtQtQtQtQt.D.E.F.G.C.G.C.r.r.r.G.H.I.J.K.jQtQt",
"QtQt.DQtQt.D.L.D.z.M.D.N.F.G.r.r.O.P.Q.R.S.jQtQt",
"Qt.D.T.DQt.D.U.D.V.D.T.D.W.F.C.X.Y.Z.0.1.2.jQtQt",
"QtQt.D.U.3.T.U.T.3.U.D.4.5.N.6.Y.7.8.9#.##.jQtQt",
"QtQtQt.3.U#a#b#a.U.3#c#d#e#f#g#h#i#j#.#k#l.jQtQt",
"Qt.D.D.T#a#b#b#b#a.T.D.D#m#n#o#i#p#q#r#s#t.jQtQt",
".D.L.U.U#b#u#v#u#b.U.U.L.D#w#x#y#z#A#s#B#C.jQtQt",
"Qt.D.D.T#a#b#b#b#a.T.D.D#D#E#F#G#z#A#s#B#C.jQtQt",
"QtQtQt.3.U#a#b#a.U.3#H#I#J#K#L#M#N#O#P#Q#R.jQtQt",
"QtQt.D.U.3.T.U.T.3.U.D#J#S#T#U#N#O#V#Q#W#X.jQtQt",
"Qt.D.T.DQt.D.U.D#Y.D.T.D#Z#0#1#2#3#4#5#6#7.jQtQt",
"QtQt.DQtQt.D.L.D#8#9.Da.a#aaabacad#5#6aeaf.jQtQt",
"QtQtQtQtQtQt.Dagahaiajakalamanadaoapaqaras.jQtQt",
"QtQtQtQtQtQt.jat#9auavawaxayazaAaBaCaDaEaF.jQtQt",
"QtQtQtQtQtQt.j.j.j.j.j.j.j.j.j.j.j.j.j.j.j.jQtQt",
"QtQtQtQtQtQtQtQtQtQtQtQtQtQtQtQtQtQtQtQtQtQtQtQt",
"QtQtQtQtQtQtQtQtQtQtQtQtQtQtQtQtQtQtQtQtQtQtQtQt"};
