/* XPM */
static const char *paintbar[]=
{
"17 17 3 1",
". c None",
"a c #00c000",
"# c #ff0000",
"...##.......aa...",
"...##.......aa...",
"...##.......aa...",
"#####....aaaaa...",
"#####....aaaaa...",
"...##.......aa...",
"...##.......aa...",
"...##.......aa...",
"...##.......aa...",
"...##.......aa...",
"...##.......aa...",
"...##.......aa...",
"...#####....aaaaa",
"...#####....aaaaa",
"...##.......aa...",
"...##.......aa...",
"...##.......aa..."};
