/* XPM */
static const char *plugin[]={
"16 16 10 1",
". c None",
"b c #000000",
"c c #404000",
"g c #585858",
"f c #808080",
"h c #a0a0a0",
"a c #c0c000",
"e c #c3c3c3",
"# c #ffff00",
"d c #ffffff",
"................",
"................",
"................",
"........#a......",
"...bb..#ac......",
"..bdeb#ac.......",
".bd..ebc...#a...",
"bfe...eb..#ac...",
"bgfe...eb#ac....",
"bggfe...ebc.....",
".bgefe..ehb.....",
"..bdhfe.hfb.....",
".bdhfgfhfgb.....",
"bdhbbgffgb......",
"dhb..bggb.......",
"hb....bb........"};
