/* XPM */
static const char *quotes[]={
"16 16 93 2",
"Qt c None",
".i c #01050a",
".f c #0f4a71",
".Z c #111111",
".e c #13405e",
".6 c #141414",
".# c #14507d",
".D c #161616",
".x c #171717",
".q c #181818",
".h c #192d45",
".p c #1b6c9e",
".o c #1c82c1",
".c c #1d4b78",
".g c #2297cd",
".k c #234b79",
".n c #2493c3",
"#A c #262626",
".N c #2a292a",
".u c #2a96c9",
".a c #2b87bf",
".d c #2b95c8",
"#r c #2d2d2d",
".m c #2ea4d1",
"#j c #333333",
".j c #3a3a3a",
"#d c #3d3d3d",
"#e c #3f3f3f",
".7 c #444444",
".t c #486283",
".b c #54a7d7",
".E c #5b5a5b",
".O c #686768",
".l c #7db7d9",
".5 c #7e7c7e",
".0 c #7e7d7e",
"#. c #858485",
"## c #898889",
"#b c #8d8c8d",
"#z c #8d8d8d",
".y c #8f8e8f",
"#y c #8f8f8f",
"#x c #939393",
".4 c #959495",
".Q c #9a999a",
"#h c #9f9f9f",
".V c #a09fa0",
".M c #a5a2a5",
"#a c #a5a3a4",
".P c #a6a5a6",
"#w c #a6a6a6",
"#q c #a7a7a7",
"#v c #a8a8a8",
"#p c #a9a9a9",
".2 c #aaa9aa",
"#c c #ababab",
"#o c #acacac",
"#u c #afafaf",
".r c #b1b0b1",
".9 c #b1b1b1",
"#t c #b2b2b2",
".1 c #b3b2b3",
".F c #b5b4b5",
"#g c #b5b5b5",
".W c #b6b5b6",
"#n c #b6b6b6",
"#s c #b7b7b7",
"#m c #b9b9b9",
".Y c #bab7ba",
".T c #bababa",
".X c #c4c2c4",
".z c #c4c3c4",
".s c #c5c4c5",
".C c #c8c6c8",
"#l c #c8c8c8",
".K c #cdcccd",
".G c #cecdce",
"#k c #cfcfcf",
".A c #cfcfd2",
".R c #d0cfd0",
".B c #d1d1d2",
".3 c #d3d2d3",
"#i c #d3d3d3",
".U c #d4d3d4",
".H c #d6d5d6",
".w c #d8d7d8",
".S c #d8d8d8",
".J c #d9d8d9",
".I c #dbdadb",
".L c #dddcdd",
".v c #deddde",
"#f c #ebebeb",
".8 c #f8f8f8",
"QtQtQtQtQtQt.#.#.#.#QtQtQtQtQtQt",
"QtQtQtQtQtQt.#.a.b.cQtQtQtQtQtQt",
"QtQtQtQtQtQt.#.d.b.cQtQtQtQtQtQt",
"QtQtQtQtQtQt.#.d.b.#QtQtQtQtQtQt",
"QtQtQt.e.f.f.f.d.g.c.h.i.iQtQtQt",
"QtQtQt.j.k.l.m.n.o.n.p.h.jQtQtQt",
"QtQt.q.r.s.t.l.u.n.p.h.v.w.xQtQt",
"QtQt.j.y.z.A.k.l.#.h.B.v.C.jQtQt",
"Qt.D.E.F.G.H.I.c.h.J.K.w.L.M.NQt",
"Qt.j.O.P.Q.R.S.T.U.H.V.W.X.Y.jQt",
".Z.j.j.j.0.s.1.y.2.3.4.5.j.j.j.6",
".7.8.8.9.j.P#.#.###a#b.j#c.8.8#d",
"#e#f#f#g.j.j.j.j.j.j.j.j#h#i#i#j",
".j#i#k#l#m#n#n#n#n#n#n.9#o#p#q#r",
"#j#s#t#u#v#w#w#w#w#w#w#h#x#y#z#A",
"Qt.j.j.j.j.j.j.j.j.j.j.j.j.j.jQt"};
