/* XPM */
static const char *addgroup[] = {
/* columns rows colors chars-per-pixel */
"16 16 104 2",
"   c #000100010001",
".  c #020202020202",
"X  c gray8",
"o  c #1E1E1E1E1E1E",
"O  c #202021212121",
"+  c #282828282828",
"@  c gray16",
"#  c gray17",
"$  c gray18",
"%  c #2F2F2F2F2F2F",
"&  c #3A3A38383535",
"*  c #393939393939",
"=  c #3E3E3E3E3E3E",
"-  c #3F3F3F3F3F3F",
";  c #00003C3C5B5B",
":  c #00003D3D5A5A",
">  c gray25",
",  c gray27",
"<  c #464646464646",
"1  c #484848484848",
"2  c gray31",
"3  c #585858585858",
"4  c #606060606060",
"5  c #6A6A69696969",
"6  c #6C6C6B6B6B6B",
"7  c #6E6E6D6D6D6D",
"8  c #727272727272",
"9  c gray46",
"0  c #0B0B54548282",
"q  c #0E0E5C5C8D8D",
"w  c #0E0E5E5E9191",
"e  c #00006B6B9E9E",
"r  c #0E0E65659797",
"t  c #0F0F65659696",
"y  c #0F0F66669898",
"u  c #07077070A1A1",
"i  c #08087373A5A5",
"p  c #10106C6CA1A1",
"a  c #11116F6FA0A0",
"s  c #11117272A4A4",
"d  c #11117575A4A4",
"f  c #12127C7CADAD",
"g  c #12127F7FB1B1",
"h  c #27276C6C8C8C",
"j  c #28286C6C8F8F",
"k  c #29296C6C8E8E",
"l  c #272768689292",
"z  c #0003FFFF0003",
"x  c #07078484B2B2",
"c  c #07078787B6B6",
"v  c #13138080B2B2",
"b  c #16169A9ACBCB",
"n  c #1919AFAFEEEE",
"m  c #3838A2A2C5C5",
"M  c #3A3AA3A3C5C5",
"N  c #3C3CB9B9EDED",
"B  c #5757A1A1C0C0",
"V  c #5858AEAECDCD",
"C  c #5656B0B0CDCD",
"Z  c #5D5DB1B1D0D0",
"A  c #7070B8B8D3D3",
"S  c #7272B9B9D4D4",
"D  c #7676BBBBD5D5",
"F  c #7777BCBCD6D6",
"G  c #7979BFBFD6D6",
"H  c #9D9D9D9D9D9D",
"J  c #8181A0A0B0B0",
"K  c #8888A6A6B5B5",
"L  c #8A8AA9A9B9B9",
"P  c #A4A4A4A4A4A4",
"I  c #A7A7A7A7A7A7",
"U  c #AAAAAAAAAAAA",
"Y  c #AEAEAEAEAEAE",
"T  c #AFAFAFAFAFAF",
"R  c gray69",
"E  c gray71",
"W  c #B6B6B6B6B6B6",
"Q  c #BBBBBBBBBBBB",
"!  c gray75",
"~  c #8181C2C2D8D8",
"^  c #8282C3C3D9D9",
"/  c #8585C4C4D9D9",
"(  c #9191C9C9DBDB",
")  c #C1C1BEBEBEBE",
"_  c #C5C5C5C5C5C5",
"`  c #C6C6C6C6C6C6",
"'  c #CBCBC9C9C8C8",
"]  c #CACACACACACA",
"[  c #CBCBCBCBCBCB",
"{  c gray80",
"}  c gray82",
"|  c #D5D5D5D5D5D5",
" . c #D7D7D7D7D7D7",
".. c #DBDBD7D7D6D6",
"X. c gainsboro",
"o. c #C1C1E1E1EDED",
"O. c #D3D3EDEDF6F6",
"+. c #E1E1E1E1E1E1",
"@. c #E4E4E4E4E4E4",
"#. c #E6E6E6E6E6E6",
"$. c #E9E9E9E9E9E9",
"%. c #EAEAEAEAEAEA",
"&. c gray92",
"*. c None",
/* pixels */
"*.*.*.*.  1 *.*.*.*.*.*.*.*.*.*.",
"*.*.*.X [ $.1 1 % *.*.*.*.*.*.*.",
"*.*.= e : 9 P [ $.1   1 9 . *.*.",
"*.*.+ o.O.G e : 9 P { #.$.$.  *.",
"*.*.O N M G o.O./ i ; 9 P [ $.< ",
"*.*.o n c m Z F ^ o.O./ u : 9 2 ",
"*.*.o b p f x c m C A ( o.O.G = ",
"*.*.+ v 0 w y p g c c m V A o.- ",
"*.        L k 0 q y d f x c A > ",
"*.  z z   &.&...J h 0 w y s B > ",
"*.  z z   #.+.X.|  .] K k 0 l > ",
"    z z         } { _ ! _ ! 7 < ",
"z z z z z z z   ] _ *.Q W Y 7 < ",
"z z z z z z z   4 Y Q W T U 6 < ",
"    z z         *.  $ 3 H U 5 * ",
"*.  z z   *.*.*.*.*.*.*.  + & *."
};

 	  	 
