/* XPM */
static const char * cursorZoom_xpm[] = {
"16 16 62 1",
" 	c None",
".	c #6490D3",
"+	c #4889E8",
"@	c #458AE7",
"#	c #307FF0",
"$	c #2F80F0",
"%	c #2F80EF",
"&	c #9B9CA3",
"*	c #A0A1A7",
"=	c #A4A5AB",
"-	c #A4A5AC",
";	c #AAABB0",
">	c #AFB1B4",
",	c #AFB1B6",
"'	c #BABBC1",
")	c #C4C5CB",
"!	c #2077EF",
"~	c #92A7C5",
"{	c #88A0C7",
"]	c #146EEE",
"^	c #136FEF",
"/	c #0A68EE",
"(	c #3F88EE",
"_	c #E4E4E4",
":	c #EFEFEF",
"<	c #FEFEFE",
"[	c #1271FF",
"}	c #1371FF",
"|	c #1F76F0",
"1	c #609EF5",
"2	c #64A2FF",
"3	c #65A2FF",
"4	c #7193C6",
"5	c #77ACF7",
"6	c #8FBBF9",
"7	c #A5C9F9",
"8	c #B3D1FA",
"9	c #BCD6F9",
"0	c #D1E3FC",
"a	c #D6E4F8",
"b	c #D8E7FD",
"c	c #DBE6F6",
"d	c #DEEBFC",
"e	c #E1EAF7",
"f	c #E2ECFA",
"g	c #E3E9F2",
"h	c #E4EEFC",
"i	c #E5ECF5",
"j	c #E7E7E7",
"k	c #EAEAEA",
"l	c #EBEBEB",
"m	c #EDEDED",
"n	c #EEEEEE",
"o	c #EFEFEF",
"p	c #F0F0F0",
"q	c #F2F2F2",
"r	c #F3F3F3",
"s	c #F4F4F4",
"t	c #F5F5F5",
"u	c #F6F6F7",
"v	c #FDFDFD",
"w	c #FFFFFF",
"33           33 ",
"}}'4-4*4;4 4 }} ",
" ):omlkj_>      ",
" 4u9gnmor>   4  ",
" )vf8isst>      ",
" 4wwh7esp>   4  ",
" )wwwd6cq>      ",
" 4wwwwb5a>   4  ",
" )<wwww01~ $    ",
" 4',-&*={(#! 4  ",
"         $|]    ",
" 4      %!^/ 4  ",
"                ",
"22 4 4 4 4 4 22 ",
"[[           [[ ",
"                "};
