/* XPM */
static const char * cursor_arrow_xpm[] = {
"16 16 23 1",
" 	c None",
".	c #FFFFFF",
"+	c #686868",
"@	c #646464",
"#	c #606060",
"$	c #5B5B5B",
"%	c #575757",
"&	c #F7F7F7",
"*	c #414141",
"=	c #EDEDED",
"-	c #8A8A8A",
";	c #9D9D9D",
">	c #454545",
",	c #D0D0D0",
"'	c #F6F6F6",
")	c #191919",
"!	c #3F3F3F",
"~	c #959595",
"{	c #CDCDCD",
"]	c #F5F5F5",
"^	c #515151",
"/	c #333333",
"(	c #2E2E2E",
"                ",
"                ",
"    .           ",
"    ..          ",
"    ...+        ",
"    ....@       ",
"    .....#      ",
"    ......$     ",
"    .......%    ",
"    ...&*       ",
"    .=-.;       ",
"    => ,'       ",
"   )!  $.~      ",
"        {]      ",
"        ^./     ",
"         (      "};
