/* XPM */
static const char *open_xpm[] = {
"16 16 87 1",
" 	c None",
".	c #FFFFFF",
"+	c #4187DB",
"@	c #3983DE",
"#	c #18549D",
"$	c #E2E3E3",
"%	c #E8E9E9",
"&	c #EBEBEB",
"*	c #EDEDED",
"=	c #EEEFEF",
"-	c #F0F0F0",
";	c #3881D9",
">	c #D9E7F7",
",	c #909DAD",
"'	c #EDEEEE",
")	c #EFEFEF",
"!	c #F1F2F2",
"~	c #F3F3F3",
"{	c #F4F4F4",
"]	c #F5F5F5",
"^	c #19569D",
"/	c #3A84DE",
"(	c #3A82D9",
"_	c #B8D2F1",
":	c #768DA7",
"<	c #EBECEC",
"[	c #EFF0F0",
"}	c #F2F3F3",
"|	c #F4F5F5",
"1	c #F6F6F6",
"2	c #F8F8F8",
"3	c #F9F9F9",
"4	c #7E92A9",
"5	c #C5D9F3",
"6	c #3982D9",
"7	c #3A83D9",
"8	c #AECBEF",
"9	c #6E87A6",
"0	c #FAFAFA",
"a	c #FBFBFB",
"b	c #AFCDEF",
"c	c #AECDEF",
"d	c #F1F1F1",
"e	c #FCFCFC",
"f	c #3C84DB",
"g	c #B9D4F1",
"h	c #7E95B1",
"i	c #FFFFFA",
"j	c #FFFFFE",
"k	c #226BBF",
"l	c #1060BA",
"m	c #0F58AA",
"n	c #004CA3",
"o	c #024FA8",
"p	c #024EA8",
"q	c #236DC2",
"r	c #88B3EB",
"s	c #6F96CB",
"t	c #D0E0F6",
"u	c #BCD5F4",
"v	c #BDD6F4",
"w	c #2E75C8",
"x	c #79A9E6",
"y	c #3C76BF",
"z	c #AFCAEE",
"A	c #94B9EA",
"B	c #95B9EA",
"C	c #367CCE",
"D	c #7EADE8",
"E	c #4E82C3",
"F	c #B7D0EF",
"G	c #9EC2ED",
"H	c #A0C3ED",
"I	c #3E83D4",
"J	c #91BAEE",
"K	c #6993CB",
"L	c #C6D9F1",
"M	c #C3D8F2",
"N	c #4689D8",
"O	c #B0D0F7",
"P	c #9EBDE3",
"Q	c #90AED4",
"R	c #91B0D6",
"S	c #5494E1",
"T	c #5094E6",
"U	c #5095E6",
"V	c #5095E8",
"                ",
"   ..........   ",
"+@#.$%&*=---.   ",
";>,.%')!~{]].^/+",
"(_:.<[}|1232.456",
"789.=}]2300a.9b7",
"7c9.d]20aeee.9b7",
"fgh.ij.......hgf",
"klmnooooopponmlk",
"qrstuvvvvvvutsrq",
"wxyzABBBBBBAzyxw",
"CDEFGHHHHHHGFEDC",
"IJKLMMMMMMMMLKJI",
"NOPQRRRRRRRRQPON",
"STUVVVVVVVVVVUTS",
"                "};
