/* XPM */
static const char * plugin_xpm[] = {
"16 16 171 2",
"  	c None",
". 	c #71C04A",
"+ 	c #B3DEA8",
"@ 	c #ABDAA1",
"# 	c #8FCE7D",
"$ 	c #C0E5C0",
"% 	c #E0F2E1",
"& 	c #D4EDD5",
"* 	c #C8E9CA",
"= 	c #6ABE57",
"- 	c #58B431",
"; 	c #84CD7D",
"> 	c #CEEBCD",
", 	c #C2E6C1",
"' 	c #B0DFAE",
") 	c #4DB134",
"! 	c #75C45F",
"~ 	c #9CD690",
"{ 	c #99D48C",
"] 	c #B3E0AC",
"^ 	c #CDEBCA",
"/ 	c #BDE6BA",
"( 	c #B2E1AE",
"_ 	c #A9DDA4",
": 	c #AADDA4",
"< 	c #99D48F",
"[ 	c #88CD7C",
"} 	c #7DC96F",
"| 	c #57B642",
"1 	c #95D387",
"2 	c #DBF1D7",
"3 	c #CFEDCA",
"4 	c #C4E9BE",
"5 	c #BAE5B3",
"6 	c #AEE1A6",
"7 	c #A4DD9A",
"8 	c #99D98E",
"9 	c #8ED582",
"0 	c #83D176",
"a 	c #78CD6A",
"b 	c #6EC95E",
"c 	c #5ABA4A",
"d 	c #99D78A",
"e 	c #CBECC3",
"f 	c #C1E9B7",
"g 	c #B6E5AC",
"h 	c #ACE1A0",
"i 	c #A1DE94",
"j 	c #98DA88",
"k 	c #8DD67C",
"l 	c #83D371",
"m 	c #79CF65",
"n 	c #6ECB59",
"o 	c #69C951",
"p 	c #52B941",
"q 	c #A1DC91",
"r 	c #BEE9B1",
"s 	c #B4E5A4",
"t 	c #A9E198",
"u 	c #9FDD8D",
"v 	c #96DB81",
"w 	c #8CD775",
"x 	c #83D469",
"y 	c #79D15E",
"z 	c #72CF56",
"A 	c #68CB49",
"B 	c #5EC93B",
"C 	c #46B432",
"D 	c #B3E1A6",
"E 	c #87CF78",
"F 	c #BFEAAE",
"G 	c #B1E69D",
"H 	c #A8E392",
"I 	c #9FDF86",
"J 	c #96DC7A",
"K 	c #8CD96F",
"L 	c #83D663",
"M 	c #7BD459",
"N 	c #6FD14A",
"O 	c #62CA3B",
"P 	c #48B634",
"Q 	c #53BF34",
"R 	c #40AE31",
"S 	c #6CC25A",
"T 	c #C7EEB5",
"U 	c #BAEAA3",
"V 	c #AFE796",
"W 	c #A7E48B",
"X 	c #9FE180",
"Y 	c #94DE73",
"Z 	c #88DA63",
"` 	c #7AD650",
" .	c #70D443",
"..	c #69D139",
"+.	c #69D238",
"@.	c #48B533",
"#.	c #6DC557",
"$.	c #92E068",
"%.	c #88DD5A",
"&.	c #80D94F",
"*.	c #79D746",
"=.	c #73D63F",
"-.	c #70D33A",
";.	c #70D33B",
">.	c #70D23B",
",.	c #6FD23B",
"'.	c #40AE32",
").	c #43AD35",
"!.	c #72CC42",
"~.	c #70CB40",
"{.	c #70CA41",
"].	c #70CB41",
"^.	c #70C941",
"/.	c #70C942",
"(.	c #70C842",
"_.	c #45AF38",
":.	c #2BA030",
"<.	c #4EB439",
"[.	c #61C03F",
"}.	c #66C440",
"|.	c #66C340",
"1.	c #67C341",
"2.	c #66C241",
"3.	c #65C241",
"4.	c #65C340",
"5.	c #64C140",
"6.	c #46AF38",
"7.	c #54B93C",
"8.	c #4EB43C",
"9.	c #5DBD3E",
"0.	c #5BBC3F",
"a.	c #5BBB3E",
"b.	c #5ABC3E",
"c.	c #5BBC3E",
"d.	c #5ABD3E",
"e.	c #59BC3E",
"f.	c #58BB3D",
"g.	c #1F9830",
"h.	c #3FAB3D",
"i.	c #4FB53B",
"j.	c #4DB63C",
"k.	c #4DB53C",
"l.	c #4DB53B",
"m.	c #4CB53B",
"n.	c #4CB43B",
"o.	c #4BB43B",
"p.	c #4AB33A",
"q.	c #229B30",
"r.	c #3AA742",
"s.	c #3EAC37",
"t.	c #3EAC38",
"u.	c #3DAC38",
"v.	c #3DAB38",
"w.	c #3CAC37",
"x.	c #3CAB37",
"y.	c #3BAB36",
"z.	c #3BAA37",
"A.	c #3AAB37",
"B.	c #3AAA36",
"C.	c #1B9930",
"D.	c #14932E",
"E.	c #1A972F",
"F.	c #19972F",
"G.	c #189530",
"H.	c #189630",
"I.	c #179630",
"J.	c #169630",
"K.	c #159530",
"L.	c #13942F",
"M.	c #12932E",
"N.	c #0A8F2E",
"              . + @ #           ",
"              $ % & * =         ",
"            - ; > , ' )         ",
"      ! ~ { ] ^ / ( _ : < [ } | ",
"      1 2 3 4 5 6 7 8 9 0 a b c ",
"      d e f g h i j k l m n o p ",
"      q r s t u v w x y z A B C ",
"  D E F G H I J K L M N O P Q R ",
"S T U V W X Y Z `  ...+.@.      ",
"#.$.%.&.*.=.-.;.>.;.>.,.'.      ",
").!.~.{.].{.{.^./.(./.{._.      ",
":.<._.[.}.|.1.2.2.3.2.4.5.6.7.  ",
"      8.9.9.0.0.a.b.c.d.b.e.f.g.",
"      h.i.i.j.k.l.m.l.m.n.o.p.q.",
"      r.s.s.t.u.v.w.x.y.z.A.B.C.",
"      D.E.F.G.H.I.J.K.K.K.L.M.N."};
