/* XPM */
static const char * que_xpm[] = {
"16 16 141 2",
"  	c None",
". 	c #788D91",
"+ 	c #A6B5B8",
"@ 	c #CCD6DA",
"# 	c #C5D0D2",
"$ 	c #98A9AC",
"% 	c #647D82",
"& 	c #546F75",
"* 	c #A5B9C2",
"= 	c #BBCFD9",
"- 	c #AEC3CD",
"; 	c #AAC1CB",
"> 	c #B3C8D3",
", 	c #99AFB9",
"' 	c #546E75",
") 	c #5E787E",
"! 	c #B5CAD4",
"~ 	c #A8C0CB",
"{ 	c #9EB6C1",
"] 	c #F5F5F6",
"^ 	c #F6F6F7",
"/ 	c #92ADBA",
"( 	c #97B0BD",
"_ 	c #9CB7C5",
": 	c #5C767E",
"< 	c #496267",
"[ 	c #A8C1CC",
"} 	c #9FB7C4",
"| 	c #9CB6C2",
"1 	c #89A4B1",
"2 	c #FFFFFF",
"3 	c #7F9BA9",
"4 	c #8BA9B7",
"5 	c #86A4B3",
"6 	c #88A7B7",
"7 	c #4A6369",
"8 	c #364D53",
"9 	c #7F98A3",
"0 	c #94B0BC",
"a 	c #93AFBC",
"b 	c #92ADBB",
"c 	c #809CAA",
"d 	c #7694A3",
"e 	c #83A1B0",
"f 	c #7D9CAC",
"g 	c #7697A6",
"h 	c #6F8C99",
"i 	c #364D52",
"j 	c #344A4F",
"k 	c #90AEBC",
"l 	c #8AA8B5",
"m 	c #8AA6B6",
"n 	c #89A6B5",
"o 	c #7895A5",
"p 	c #6F8D9D",
"q 	c #7B9AAA",
"r 	c #7596A6",
"s 	c #6E90A1",
"t 	c #799AAB",
"u 	c #374C52",
"v 	c #3C5259",
"w 	c #84A4B3",
"x 	c #81A0AF",
"y 	c #82A0AF",
"z 	c #82A1AF",
"A 	c #7290A0",
"B 	c #668696",
"C 	c #6F91A0",
"D 	c #688A9A",
"E 	c #668C9B",
"F 	c #495E65",
"G 	c #384D54",
"H 	c #7D9DAD",
"I 	c #7A99A9",
"J 	c #7D9BAB",
"K 	c #7191A0",
"L 	c #F4F5F4",
"M 	c #F7F7F8",
"N 	c #97ADB7",
"O 	c #648897",
"P 	c #7495A3",
"Q 	c #3E535A",
"R 	c #2A3A40",
"S 	c #537C87",
"T 	c #618491",
"U 	c #6E8E9B",
"V 	c #7594A1",
"W 	c #7B99A6",
"X 	c #7E949D",
"Y 	c #DEE1E2",
"Z 	c #E0E5E8",
"` 	c #486E7A",
" .	c #46717C",
"..	c #293A40",
"+.	c #243238",
"@.	c #43646D",
"#.	c #597D88",
"$.	c #648691",
"%.	c #6D8C97",
"&.	c #72909B",
"*.	c #76939E",
"=.	c #67848F",
"-.	c #90A0A6",
";.	c #F8F8F8",
">.	c #FEFEFC",
",.	c #496E79",
"'.	c #40626B",
").	c #25363C",
"!.	c #5D828D",
"~.	c #678893",
"{.	c #7995A0",
"].	c #7D99A4",
"^.	c #7C98A3",
"/.	c #7895A0",
"(.	c #5F7C87",
"_.	c #567680",
":.	c #587E89",
"<.	c #26373F",
"[.	c #344D56",
"}.	c #6A8B96",
"|.	c #75939E",
"1.	c #7F9AA5",
"2.	c #849EA9",
"3.	c #839DA8",
"4.	c #718F9A",
"5.	c #648792",
"6.	c #364F5A",
"7.	c #3D5762",
"8.	c #698590",
"9.	c #86A0AB",
"0.	c #8DA4AF",
"a.	c #8BA2AD",
"b.	c #7F9AA6",
"c.	c #698692",
"d.	c #425D68",
"e.	c #4C6774",
"f.	c #627C8A",
"g.	c #7B93A0",
"h.	c #7F98A5",
"i.	c #6C8793",
"j.	c #55707C",
"                                ",
"          . + @ # $ %           ",
"        & * = - ; > , '         ",
"      ) ! ~ { ] ^ / ( _ :       ",
"    < [ } | 1 2 2 3 4 5 6 7     ",
"  8 9 0 a b c 2 2 d e f g h i   ",
"  j k l m n o 2 2 p q r s t u   ",
"  v w x y z A 2 2 B r C D E F   ",
"  G H I q J K L 2 M N O P C Q   ",
"  R S T U V W X Y 2 2 Z `  ...  ",
"  +.@.#.$.%.&.*.=.-.;.>.,.'.+.  ",
"    ).!.~.&.{.].^./.(._.:.<.    ",
"      [.}.|.1.2.3.^.4.5.6.      ",
"        7.8.9.0.a.b.c.d.        ",
"          e.f.g.h.i.j.          ",
"                                "};
