/* XPM */
static const char * start_xpm[] = {
"12 11 23 1",
" 	c None",
".	c #69DF46",
"+	c #52D036",
"@	c #31BA21",
"#	c #60D840",
"$	c #004400",
"%	c #007800",
"&	c #0A9F06",
"*	c #5FD93F",
"=	c #52CF36",
"-	c #005300",
";	c #006F00",
">	c #007400",
",	c #31B920",
"'	c #13A50C",
")	c #005900",
"!	c #006800",
"~	c #21AF15",
"{	c #42C52C",
"]	c #007700",
"^	c #004B00",
"/	c #006100",
"(	c #FFFFCC",
" ]]       ]%",
"]((]     ](]",
">..>    >(.>",
";**;   ;(#*;",
"!==!  !(++=!",
"/{{/ /({{{{/",
"/,,/  /@@,,/",
")~~)   )~~~)",
"-''-    -''-",
"^&&^     ^&^",
" ^^       ^$"};
