/* XPM */
static const char *entershort[]={
"24 24 3 1",
". c None",
"a c #000000",
"# c #ff0000",
"........................",
"........................",
"........................",
"........................",
"................####....",
"......a.........####....",
"......aa........####....",
"......aaa.......####....",
"......aaaa......####....",
"aaaaaaaaaaa.....####....",
"aaaaaaaaaaaa....####....",
"aaaaaaaaaaaa....####....",
"aaaaaaaaaaa.....####....",
"......aaaa..############",
"......aaa....##########.",
"......aa......########..",
"......a........######...",
"................####....",
".................##.....",
"........................",
"........................",
"........................",
"........................",
"........................"};
