/* XPM */
static const char * hidechart[] = {
"22 22 179 2",
"  	c None",
". 	c #3995E5",
"+ 	c #449DE8",
"@ 	c #4BA0EA",
"# 	c #479BE7",
"$ 	c #4395E5",
"% 	c #3F8FE2",
"& 	c #3A89E0",
"* 	c #3683DD",
"= 	c #327DDB",
"- 	c #2D77D8",
"; 	c #2971D6",
"> 	c #246BD3",
", 	c #2065D1",
"' 	c #1B5FCE",
") 	c #1759CC",
"! 	c #1253C9",
"~ 	c #0E4DC7",
"{ 	c #0A47C4",
"] 	c #0742C2",
"^ 	c #053FBF",
"/ 	c #0238B2",
"( 	c #0032A4",
"_ 	c #8BCFFF",
": 	c #84C9FF",
"< 	c #7DC1FF",
"[ 	c #75BAFF",
"} 	c #6DB2FF",
"| 	c #65AAFF",
"1 	c #5DA1FF",
"2 	c #5499FF",
"3 	c #4B90FF",
"4 	c #4287FF",
"5 	c #397FFF",
"6 	c #3076FF",
"7 	c #276DFF",
"8 	c #1E64FF",
"9 	c #155BFF",
"0 	c #0C52FF",
"a 	c #044AFF",
"b 	c #0349FF",
"c 	c #0340F1",
"d 	c #0032AB",
"e 	c #4DA3EC",
"f 	c #84C8FF",
"g 	c #7EC2FF",
"h 	c #77BBFF",
"i 	c #70B4FF",
"j 	c #68ADFF",
"k 	c #60A5FF",
"l 	c #589DFF",
"m 	c #5095FF",
"n 	c #488DFF",
"o 	c #3F84FF",
"p 	c #367BFF",
"q 	c #2D73FF",
"r 	c #246AFF",
"s 	c #1C61FF",
"t 	c #1358FF",
"u 	c #0A4FFF",
"v 	c #0343F6",
"w 	c #0132B1",
"x 	c #5BA8EB",
"y 	c #BFE1FF",
"z 	c #BCDEFF",
"A 	c #B9DBFF",
"B 	c #B5D7FF",
"C 	c #B1D4FF",
"D 	c #AED0FF",
"E 	c #AACCFF",
"F 	c #A6C8FF",
"G 	c #A2C4FF",
"H 	c #9DC0FF",
"I 	c #99BCFF",
"J 	c #95B8FF",
"K 	c #90B3FF",
"L 	c #8CAFFF",
"M 	c #87AAFF",
"N 	c #82A5FE",
"O 	c #7FA2FE",
"P 	c #7EA1FD",
"Q 	c #7DA0FD",
"R 	c #7A9AF5",
"S 	c #1D48B3",
"T 	c #6AAFEB",
"U 	c #FFFFFF",
"V 	c #FEFEFF",
"W 	c #FDFDFE",
"X 	c #FBFBFC",
"Y 	c #F9F9FB",
"Z 	c #F7F7FA",
"` 	c #F6F6F9",
" .	c #F0EFF4",
"..	c #385EB5",
"+.	c #69AEEA",
"@.	c #F4F4F8",
"#.	c #EEEDF3",
"$.	c #385DB4",
"%.	c #69ACE9",
"&.	c #FBFBFD",
"*.	c #F2F2F7",
"=.	c #ECEBF2",
"-.	c #375CB4",
";.	c #68AAE8",
">.	c #F1F1F6",
",.	c #E9E9F0",
"'.	c #365BB3",
").	c #67A9E7",
"!.	c #F8F8FB",
"~.	c #F3F3F7",
"{.	c #EFEFF5",
"].	c #E7E7EE",
"^.	c #355AB2",
"/.	c #66A7E6",
"(.	c #F9F9FC",
"_.	c #EDEDF4",
":.	c #E5E5ED",
"<.	c #3459B2",
"[.	c #65A6E5",
"}.	c #ECECF3",
"|.	c #E3E3EC",
"1.	c #3358B1",
"2.	c #64A5E4",
"3.	c #F6F6FA",
"4.	c #EAEAF2",
"5.	c #E1E1EA",
"6.	c #3358B0",
"7.	c #63A3E3",
"8.	c #E8E8F1",
"9.	c #DFDFE9",
"0.	c #3257B0",
"a.	c #62A2E2",
"b.	c #FAFAFC",
"c.	c #F4F4F9",
"d.	c #EEEEF4",
"e.	c #E7E7F0",
"f.	c #DEDDE8",
"g.	c #62A0E1",
"h.	c #E5E5EF",
"i.	c #DCDCE7",
"j.	c #619FE1",
"k.	c #F1F1F7",
"l.	c #E3E3EE",
"m.	c #DBDBE6",
"n.	c #609DDF",
"o.	c #F3F3F8",
"p.	c #E2E2ED",
"q.	c #DAD9E6",
"r.	c #5E9ADE",
"s.	c #FAFAFB",
"t.	c #F9F9FA",
"u.	c #F7F6F9",
"v.	c #F5F4F7",
"w.	c #F2F2F6",
"x.	c #F1F0F5",
"y.	c #EFEEF3",
"z.	c #EDECF2",
"A.	c #EBEAF1",
"B.	c #E9E8EF",
"C.	c #E7E6EE",
"D.	c #E4E4ED",
"E.	c #E3E2EB",
"F.	c #E1E0EA",
"G.	c #D4D3E0",
"H.	c #357FD4",
"I.	c #5791D7",
"J.	c #548CD4",
"K.	c #5188D1",
"L.	c #4E83CE",
"M.	c #4B7ECA",
"N.	c #487AC7",
"O.	c #4575C4",
"P.	c #4271C1",
"Q.	c #406CBE",
"R.	c #3D68BB",
"S.	c #3A63B8",
"T.	c #375FB5",
"U.	c #345AB2",
"V.	c #0C3BA7",
"                                            ",
". + @ # $ % & * = - ; > , ' ) ! ~ { ] ^ / ( ",
"+ _ : < [ } | 1 2 3 4 5 6 7 8 9 0 a b b c d ",
"e f g h i j k l m n o p q r s t u b b b v w ",
"x y z A B C D E F G H I J K L M N O P Q R S ",
"T U U U U U U U U U U U U U V W X Y Z `  ...",
"+.U U U U U U U U U U U U V W X Y Z ` @.#.$.",
"%.U U U U U U U U U U U V W &.Y Z ` @.*.=.-.",
";.U U U U U U U U U U V W &.Y Z ` @.*.>.,.'.",
").U U U U U U U U U V W &.Y !.` @.~.>.{.].^.",
"/.U U U U U U U U U W &.(.!.` @.~.>.{._.:.<.",
"[.U U U U U U U U W &.(.!.` @.~.>.{._.}.|.1.",
"2.U U U U U U U W &.(.!.3.@.~.>.{._.}.4.5.6.",
"7.U U U U U U W &.(.!.3.@.~.>.{._.}.4.8.9.0.",
"a.U U U U U W &.b.!.3.c.~.>.{.d.}.4.8.e.f.0.",
"g.U U U U W &.b.!.3.c.~.>.{.d.}.4.8.e.h.i.0.",
"j.U U U W &.b.!.3.c.~.k.{.d.}.4.8.e.h.l.m.0.",
"n.U U W &.b.!.3.c.o.k.{.d.}.4.8.e.h.l.p.q.0.",
"r.s.t.u.v.w.x.y.z.A.B.C.D.E.F.9.f.i.m.q.G.0.",
"H.I.J.K.L.M.N.O.P.Q.R.S.T.U.0.0.0.0.0.0.0.V.",
"                                            ",
"                                            "};
