/* XPM */
static const char *openchart[] = {
/* columns rows colors chars-per-pixel */
"16 16 33 1",
"  c black",
". c #006300",
"X c #4b4b4b",
"o c #505050",
"O c #666666",
"+ c gray42",
"@ c #737373",
"# c #7b7b7b",
"$ c #009100",
"% c #00a500",
"& c #00c300",
"* c #00d700",
"= c #25fe25",
"- c #35fe35",
"; c #5bfe5b",
": c #818181",
"> c #8c8c8c",
", c #949494",
"< c #9a9a9a",
"1 c #a3a3a3",
"2 c gray67",
"3 c gray71",
"4 c #b9b9b9",
"5 c #b7feb7",
"6 c #c2c2c2",
"7 c #cdcdcd",
"8 c LightGray",
"9 c #dbdbdb",
"0 c #c5fec5",
"q c gray90",
"w c gray96",
"e c #fefefe",
"r c None",
/* pixels */
"rrrrrrr$rrrrrrrr",
"rrrrrr.0$rrrrrrr",
"rrrrr.&-0$rrrrrr",
"rrr7.%*=;5$rrrrr",
"rrr7www77rrrrrrr",
"rrX7wee7e7rrrrrr",
"rX#7wee7ee7rrrrr",
"rX17wee7<<@Xrrrr",
"rX<7++++OO++O+Xr",
"rX<7O7w87764<@Xr",
"rX,:,7q7842<>Xrr",
"rX@O6997732<OXrr",
"rX@<788662<>Xrrr",
"roX2667342<+Xrrr",
"rX:1222,<,>Xrrrr",
"rXXXXXXXXXXXrrrr"
};
